<?xml version="1.0" encoding="utf-8"?>
<!-- Generator: Adobe Illustrator 16.0.4, SVG Export Plug-In . SVG Version: 6.00 Build 0)  -->
<!DOCTYPE svg PUBLIC "-//W3C//DTD SVG 1.1//EN" "http://www.w3.org/Graphics/SVG/1.1/DTD/svg11.dtd">
<svg version="1.1" id="Layer_1" xmlns="http://www.w3.org/2000/svg" xmlns:xlink="http://www.w3.org/1999/xlink" x="0px" y="0px"
	 width="140.56px" height="60px" viewBox="0 0 140.56 60" enable-background="new 0 0 140.56 60" xml:space="preserve">
<g>
	<path fill="#FFFFFF" d="M8.669,33.45H5.578v10.732H0V15.755h8.669c6.823,0,9.629,2.7,9.629,8.989
		C18.298,30.43,15.598,33.45,8.669,33.45 M8.634,20.586H5.578v8.243h3.091c2.701,0,3.874-0.71,3.874-4.121
		C12.543,21.475,11.512,20.586,8.634,20.586"/>
	<path fill="#FFFFFF" d="M97.024,19.981c0-1.385,0.746-2.201,2.7-2.201c0.64,0,1.279,0.106,1.848,0.248v-3.606
		c-0.805-0.232-1.899-0.374-2.913-0.374c-4.689,0-6.823,2.559-6.823,5.756v2.81h-2.451v3.98h2.451v17.588h5.188V26.595h4.157v-3.98
		h-4.157V19.981z"/>
	<path fill="#FFFFFF" d="M50.454,22.615L47.327,35.69l-0.568,2.807h-0.107l-0.817-2.735l-4.157-13.147h-5.898L44.2,43.721
		l-0.318,0.971c-0.604,1.599-1.67,2.024-3.021,2.024c-0.711,0-1.35-0.141-2.061-0.462v3.886c0.899,0.316,1.911,0.485,2.984,0.485
		c3.447,0,5.863-1.635,7.284-6.112l6.893-21.898H50.454z"/>
	<path fill="#FFFFFF" d="M27.237,22.224c-2.314,0-4.47,0.404-6.361,1.204v4.444c1.812-0.781,3.269-1.137,5.401-1.137
		c2.736,0,3.767,0.924,3.767,3.163v1.351c-0.995-0.32-2.239-0.568-3.695-0.568c-4.513,0-7.107,2.665-7.107,6.715
		c0,4.869,2.416,7.106,6.183,7.106c2.238,0,4.086-0.853,5.294-2.38l0.106,0.035l0.391,2.025h3.979V30.681
		C35.195,24.783,33.099,22.224,27.237,22.224 M30.043,37.751c0,1.422-1.492,2.522-3.198,2.522c-1.635,0-2.736-0.781-2.736-2.949
		c0-1.989,0.995-2.984,3.233-2.984c1.315,0,2.238,0.285,2.7,0.497V37.751z"/>
	<path fill="#FFFFFF" d="M61.48,28.619c0-1.174,0.923-1.848,2.628-1.848c1.422,0,3.519,0.319,5.117,0.995v-4.524
		c-1.516-0.583-3.285-0.947-5.117-0.947c-5.116,0-7.568,2.771-7.568,6.537c0,7.392,9.097,5.579,9.097,9.133
		c0,1.351-0.889,2.237-2.949,2.237c-1.67,0-3.908-0.462-5.472-1.42v4.688c1.554,0.766,3.479,1.14,5.578,1.14
		c5.366,0,7.64-2.737,7.64-7.106C70.435,30.183,61.48,31.959,61.48,28.619"/>
	<path fill="#FFFFFF" d="M79.977,22.224c-2.314,0-4.471,0.404-6.361,1.204v4.444c1.812-0.781,3.27-1.137,5.401-1.137
		c2.736,0,3.767,0.924,3.767,3.163v1.351c-0.994-0.32-2.239-0.568-3.695-0.568c-4.513,0-7.107,2.665-7.107,6.715
		c0,4.869,2.417,7.106,6.184,7.106c2.238,0,4.087-0.853,5.295-2.38l0.105,0.035l0.391,2.025h3.979V30.681
		C87.935,24.783,85.838,22.224,79.977,22.224 M82.783,37.751c0,1.422-1.492,2.522-3.198,2.522c-1.636,0-2.736-0.781-2.736-2.949
		c0-1.989,0.995-2.984,3.234-2.984c1.313,0,2.238,0.285,2.7,0.497V37.751z"/>
	<path fill="#FFFFFF" d="M117.822,38.959c-1.635,0.64-3.342,0.995-5.223,0.995c-3.447,0-5.012-1.279-5.225-5.152h11.441
		c0.106-0.781,0.144-1.741,0.144-2.594c0-6.929-3.057-9.95-8.21-9.95c-5.969,0-8.741,3.802-8.741,10.837
		c0,7.711,3.021,11.478,9.95,11.478c2.243,0,4.288-0.422,5.863-1.064V38.959z M110.787,26.7c2.096,0,3.34,1.138,3.41,4.514h-6.929
		C107.482,27.872,108.405,26.7,110.787,26.7"/>
	<path fill="#FFFFFF" d="M122.134,15.415c0.675-0.548,1.291-1.165,1.841-1.837c0.322-0.395,0.625-0.809,0.898-1.241l0,0
		c1.25-1.971,1.979-4.306,1.98-6.812l0,0v0l0.007-4.894l-3.947-0.004l-0.005,4.896c-0.005,3.483-2.032,6.482-4.964,7.913
		c1.306,0.371,2.559,0.927,3.718,1.662C121.822,15.197,121.979,15.307,122.134,15.415"/>
	<path fill="#FFFFFF" d="M135.664,14.354c-3.483-0.004-6.482-2.031-7.913-4.964c-0.371,1.306-0.927,2.559-1.661,3.717
		c-0.102,0.161-0.211,0.316-0.32,0.473c0.549,0.674,1.164,1.291,1.838,1.841c0.396,0.322,0.808,0.625,1.242,0.898l0,0
		c1.343,0.852,2.857,1.455,4.479,1.757c0.759,0.142,1.535,0.223,2.333,0.225l0,0l4.894,0.005l0.005-3.946L135.664,14.354z"/>
	<path fill="#FFFFFF" d="M127.605,17.216c-0.675,0.548-1.291,1.164-1.841,1.837c-0.322,0.395-0.625,0.81-0.898,1.241l0,0
		c-1.25,1.971-1.979,4.306-1.98,6.812l0,0l0,0l-0.005,4.895l3.945,0.004l0.006-4.896c0.004-3.482,2.031-6.483,4.963-7.913
		c-1.305-0.371-2.559-0.926-3.717-1.664C127.917,17.433,127.761,17.324,127.605,17.216"/>
	<path fill="#FFFFFF" d="M123.97,19.052c-0.549-0.675-1.165-1.292-1.838-1.842c-0.396-0.322-0.808-0.625-1.241-0.898
		c-1.367-0.868-2.915-1.477-4.57-1.773c-0.729-0.13-1.477-0.207-2.242-0.207l0,0l-4.894-0.005l-0.005,3.946l4.896,0.006
		c3.481,0.004,6.483,2.031,7.913,4.964c0.371-1.307,0.927-2.559,1.661-3.719C123.752,19.363,123.86,19.208,123.97,19.052"/>
</g>
</svg>
