<?xml version="1.0" encoding="utf-8"?>
<!-- Generator: Adobe Illustrator 21.1.0, SVG Export Plug-In . SVG Version: 6.00 Build 0)  -->
<svg version="1.1" id="Layer_1" xmlns="http://www.w3.org/2000/svg" xmlns:xlink="http://www.w3.org/1999/xlink" x="0px" y="0px"
	 viewBox="0 0 162 47" style="enable-background:new 0 0 162 47;" xml:space="preserve">
<style type="text/css">
	.st0{fill:#FFFFFF;}
</style>
<g>
	<g>
		<path class="st0" d="M7.5,27.5l-3.1,9.4h-4l10.2-30h4.7l10.2,30h-4.1l-3.2-9.4H7.5z M17.4,24.5l-2.9-8.6c-0.7-2-1.1-3.7-1.6-5.5
			h-0.1c-0.4,1.8-0.9,3.6-1.5,5.4l-2.9,8.7H17.4z"/>
		<path class="st0" d="M29,32.9c1.2,0.8,3.2,1.6,5.2,1.6c2.9,0,4.2-1.4,4.2-3.2c0-1.9-1.1-2.9-4-4c-3.9-1.4-5.7-3.5-5.7-6.1
			c0-3.5,2.8-6.3,7.4-6.3c2.2,0,4.1,0.6,5.3,1.3l-1,2.9c-0.8-0.5-2.4-1.2-4.4-1.2c-2.3,0-3.6,1.3-3.6,2.9c0,1.8,1.3,2.6,4.1,3.7
			c3.7,1.4,5.7,3.3,5.7,6.5c0,3.8-2.9,6.5-8.1,6.5c-2.4,0-4.5-0.6-6.1-1.5L29,32.9z"/>
		<path class="st0" d="M51.9,9.2v6.2h5.6v3h-5.6V30c0,2.7,0.8,4.2,2.9,4.2c1,0,1.8-0.1,2.3-0.3l0.2,2.9c-0.8,0.3-2,0.5-3.5,0.5
			c-1.8,0-3.3-0.6-4.2-1.6c-1.1-1.2-1.5-3.1-1.5-5.6V18.3h-3.3v-3h3.3v-5.2L51.9,9.2z"/>
		<path class="st0" d="M61.9,22.1c0-2.5,0-4.7-0.2-6.7h3.4l0.1,4.2h0.2c1-2.9,3.3-4.7,6-4.7c0.4,0,0.8,0,1.1,0.1v3.7
			c-0.4-0.1-0.8-0.1-1.3-0.1c-2.8,0-4.7,2.1-5.3,5c-0.1,0.5-0.2,1.2-0.2,1.8v11.5h-3.9V22.1z"/>
		<path class="st0" d="M95.6,26c0,8-5.5,11.4-10.7,11.4c-5.8,0-10.3-4.3-10.3-11.1c0-7.2,4.7-11.4,10.7-11.4
			C91.4,14.9,95.6,19.4,95.6,26z M78.5,26.2c0,4.7,2.7,8.3,6.5,8.3c3.7,0,6.5-3.5,6.5-8.4c0-3.7-1.8-8.3-6.5-8.3
			C80.5,17.8,78.5,22.1,78.5,26.2z"/>
		<path class="st0" d="M100.6,7.3c1.9-0.3,4.3-0.6,7.4-0.6c3.8,0,6.6,0.9,8.4,2.5c1.6,1.4,2.6,3.6,2.6,6.3c0,2.7-0.8,4.9-2.3,6.4
			c-2,2.2-5.4,3.3-9.2,3.3c-1.2,0-2.2,0-3.1-0.3v12h-3.9V7.3z M104.5,21.7c0.8,0.2,1.9,0.3,3.2,0.3c4.7,0,7.5-2.3,7.5-6.4
			c0-4-2.8-5.9-7.1-5.9c-1.7,0-3,0.1-3.7,0.3V21.7z"/>
		<path class="st0" d="M135,36.9l-0.3-2.7h-0.1c-1.2,1.7-3.5,3.2-6.6,3.2c-4.4,0-6.6-3.1-6.6-6.2c0-5.2,4.6-8.1,13-8v-0.4
			c0-1.8-0.5-5-4.9-5c-2,0-4.1,0.6-5.6,1.6l-0.9-2.6c1.8-1.2,4.4-1.9,7.1-1.9c6.6,0,8.2,4.5,8.2,8.8v8.1c0,1.9,0.1,3.7,0.4,5.2H135z
			 M134.4,25.9c-4.3-0.1-9.1,0.7-9.1,4.9c0,2.5,1.7,3.7,3.7,3.7c2.8,0,4.6-1.8,5.2-3.6c0.1-0.4,0.2-0.8,0.2-1.2V25.9z"/>
		<path class="st0" d="M145.6,15.4l4.7,12.7c0.5,1.4,1,3.1,1.4,4.4h0.1c0.4-1.3,0.8-2.9,1.4-4.5l4.3-12.7h4.1l-5.9,15.4
			c-2.8,7.4-4.7,11.2-7.4,13.5c-1.9,1.7-3.8,2.4-4.8,2.5l-1-3.3c1-0.3,2.3-0.9,3.4-1.9c1.1-0.8,2.4-2.4,3.3-4.4
			c0.2-0.4,0.3-0.7,0.3-0.9c0-0.2-0.1-0.5-0.3-1l-8-19.9H145.6z"/>
	</g>
	<path class="st0" d="M18,11.6c0,0,8.4-11.2,24.7-11.4c0,0,11.4,0,21.2,10.6c0,0-12.4-8.8-21.4-7.7c0,0-12.2,1.2-17.3,8.6h-7.5"/>
</g>
</svg>
