<?xml version="1.0" encoding="utf-8"?>
<!-- Generator: Adobe Illustrator 21.1.0, SVG Export Plug-In . SVG Version: 6.00 Build 0)  -->
<svg version="1.1" id="Layer_1" xmlns="http://www.w3.org/2000/svg" xmlns:xlink="http://www.w3.org/1999/xlink" x="0px" y="0px"
	 viewBox="0 0 171 36" style="enable-background:new 0 0 171 36;" xml:space="preserve">
<style type="text/css">
	.st0{fill:#FFFFFF;}
</style>
<g transform="translate(-289.60744,-317.50471)">
	<g>
		<path class="st0" d="M307.7,329.9l-1,3.9c1.1,0.3,4.5,1.4,5-0.8C312.3,330.6,308.8,330.1,307.7,329.9z"/>
		<path class="st0" d="M306.2,335.7l-1.1,4.3c1.3,0.3,5.4,1.6,6-0.8C311.8,336.7,307.5,336,306.2,335.7z"/>
		<path class="st0" d="M312,318.3c-9.5-2.4-19.2,3.4-21.5,12.9c-2.4,9.5,3.4,19.2,12.9,21.5c9.5,2.4,19.2-3.4,21.5-12.9
			C327.4,330.3,321.6,320.6,312,318.3z M315.6,333c-0.3,1.7-1.2,2.6-2.5,2.9c1.7,0.9,2.6,2.3,1.8,4.7c-1.1,3-3.6,3.3-6.9,2.6
			l-0.8,3.2l-2-0.5l0.8-3.2c-0.5-0.1-1-0.3-1.6-0.4l-0.8,3.2l-1.9-0.5l0.8-3.2c-0.5-0.1-0.9-0.2-1.4-0.4l-2.5-0.6l1-2.2
			c0,0,1.4,0.4,1.4,0.4c0.6,0.1,0.8-0.2,0.9-0.5l1.3-5.1c0.1,0,0.1,0,0.2,0.1c-0.1,0-0.1-0.1-0.2-0.1l0.9-3.7c0-0.4-0.1-0.9-0.9-1.1
			c0,0-1.4-0.4-1.4-0.4l0.5-2.1l2.7,0.7l0,0c0.4,0.1,0.8,0.2,1.2,0.3l0.8-3.2l1.9,0.5l-0.8,3.1c0.5,0.1,1,0.2,1.6,0.4l0.8-3.1l2,0.5
			l-0.8,3.2C314.1,329.3,315.9,330.6,315.6,333z"/>
	</g>
	<path class="st0" d="M342.1,328.5c1.4,0,2.7,0.3,3.7,0.8c1.1,0.5,1.9,1.2,2.6,2.1c0.7,0.9,1.2,1.9,1.5,3.1c0.3,1.2,0.5,2.4,0.5,3.8
		c0,2.1-0.4,4-1.1,5.9c-0.8,1.8-1.8,3.4-3.1,4.8c-1.3,1.4-2.9,2.4-4.7,3.2c-1.8,0.8-3.7,1.2-5.8,1.2c-0.3,0-0.7,0-1.4,0
		c-0.7,0-1.4-0.1-2.3-0.2c-0.9-0.1-1.8-0.3-2.8-0.5c-1-0.2-1.9-0.6-2.8-1l7.8-32.7l7-1.1l-2.8,11.6c0.6-0.3,1.2-0.5,1.8-0.6
		C340.7,328.6,341.4,328.5,342.1,328.5L342.1,328.5z M336.2,347.7c1,0,2-0.3,3-0.8c0.9-0.5,1.7-1.2,2.4-2c0.7-0.9,1.2-1.8,1.6-2.9
		c0.4-1.1,0.6-2.2,0.6-3.4c0-1.4-0.2-2.6-0.7-3.4c-0.5-0.8-1.4-1.2-2.7-1.2c-0.4,0-1,0.1-1.6,0.2c-0.7,0.2-1.3,0.5-1.8,0.9l-3,12.3
		c0.2,0,0.3,0.1,0.5,0.1c0.1,0,0.3,0.1,0.4,0.1c0.2,0,0.3,0,0.5,0S335.9,347.7,336.2,347.7L336.2,347.7z"/>
	<path class="st0" d="M357.7,352.7H351l5.6-23.7h6.7L357.7,352.7z M360.9,326.1c-0.9,0-1.8-0.3-2.5-0.8c-0.8-0.6-1.1-1.4-1.1-2.5
		c0-0.6,0.1-1.2,0.4-1.8c0.3-0.6,0.6-1,1-1.4c0.4-0.4,0.9-0.7,1.5-1c0.6-0.2,1.1-0.4,1.8-0.4c0.9,0,1.8,0.3,2.5,0.8
		c0.7,0.6,1.1,1.4,1.1,2.5c0,0.6-0.1,1.2-0.4,1.8c-0.3,0.6-0.6,1-1,1.4c-0.4,0.4-0.9,0.7-1.5,1C362.1,326,361.5,326.1,360.9,326.1z"
		/>
	<path class="st0" d="M369.2,323.1l7-1.1l-1.7,7h7.5l-1.3,5.5h-7.4l-2,8.3c-0.2,0.7-0.3,1.3-0.3,1.9c0,0.6,0,1.1,0.2,1.6
		c0.2,0.4,0.5,0.8,1,1c0.5,0.2,1.1,0.4,2,0.4c0.7,0,1.4-0.1,2.1-0.2c0.7-0.1,1.4-0.3,2-0.6l0.5,5.1c-0.9,0.3-1.9,0.6-2.9,0.9
		c-1.1,0.2-2.3,0.4-3.7,0.4c-2.1,0-3.7-0.3-4.8-0.9c-1.1-0.6-1.9-1.5-2.4-2.5c-0.5-1.1-0.7-2.3-0.6-3.7c0.1-1.4,0.3-2.8,0.6-4.4
		L369.2,323.1L369.2,323.1z"/>
	<path class="st0" d="M381.6,343.2c0-2,0.3-4,1-5.8c0.7-1.8,1.6-3.4,2.8-4.7c1.2-1.3,2.7-2.4,4.5-3.2c1.7-0.8,3.7-1.2,5.9-1.2
		c1.4,0,2.6,0.1,3.6,0.4c1.1,0.3,2,0.6,2.9,1L400,335c-0.6-0.2-1.2-0.5-1.9-0.7c-0.6-0.2-1.4-0.3-2.4-0.3c-2.2,0-4,0.8-5.3,2.3
		c-1.3,1.5-2,3.6-2,6.2c0,1.5,0.3,2.8,1,3.7c0.7,0.9,1.9,1.4,3.6,1.4c0.9,0,1.7-0.1,2.5-0.3c0.8-0.2,1.5-0.4,2.2-0.7l0.5,5.4
		c-0.8,0.3-1.8,0.6-2.8,0.9c-1,0.2-2.2,0.4-3.6,0.4c-1.9,0-3.4-0.3-4.7-0.8c-1.3-0.5-2.4-1.3-3.2-2.2c-0.8-0.9-1.4-2-1.8-3.2
		C381.8,345.8,381.6,344.5,381.6,343.2z"/>
	<path class="st0" d="M411.2,353.3c-1.6,0-3-0.2-4.1-0.7c-1.2-0.5-2.1-1.2-2.9-2c-0.8-0.9-1.3-1.9-1.7-3.1c-0.4-1.2-0.6-2.5-0.6-3.9
		c0-1.8,0.3-3.6,0.9-5.4c0.6-1.8,1.4-3.4,2.6-4.9c1.1-1.4,2.5-2.6,4.2-3.5c1.6-0.9,3.5-1.4,5.7-1.4c1.6,0,2.9,0.2,4.1,0.7
		c1.2,0.5,2.2,1.2,2.9,2c0.8,0.9,1.3,1.9,1.7,3.1c0.4,1.2,0.6,2.5,0.6,3.9c0,1.8-0.3,3.6-0.9,5.4c-0.6,1.8-1.4,3.4-2.5,4.9
		c-1.1,1.4-2.5,2.6-4.2,3.5C415.3,352.8,413.4,353.3,411.2,353.3z M414.5,334c-1,0-1.9,0.3-2.6,0.9c-0.8,0.6-1.4,1.3-1.9,2.2
		c-0.5,0.9-0.9,1.8-1.2,2.9c-0.3,1-0.4,2-0.4,2.9c0,1.5,0.2,2.7,0.7,3.5c0.5,0.8,1.4,1.3,2.6,1.3c1,0,1.9-0.3,2.6-0.9
		c0.7-0.6,1.4-1.3,1.9-2.2c0.5-0.9,0.9-1.8,1.2-2.9c0.3-1,0.4-2,0.4-2.9c0-1.5-0.2-2.7-0.7-3.5C416.7,334.4,415.8,334,414.5,334
		L414.5,334z"/>
	<path class="st0" d="M431.8,352.7h-6.7l5.6-23.7h6.7L431.8,352.7z M435,326.1c-0.9,0-1.8-0.3-2.5-0.8c-0.8-0.6-1.1-1.4-1.1-2.5
		c0-0.6,0.1-1.2,0.4-1.8c0.3-0.6,0.6-1,1-1.4c0.4-0.4,0.9-0.7,1.5-1c0.6-0.2,1.1-0.4,1.8-0.4c0.9,0,1.8,0.3,2.5,0.8
		c0.7,0.6,1.1,1.4,1.1,2.5c0,0.6-0.1,1.2-0.4,1.8c-0.3,0.6-0.6,1-1,1.4c-0.4,0.4-0.9,0.7-1.5,1C436.2,326,435.6,326.1,435,326.1z"/>
	<path class="st0" d="M442.2,330.1c0.5-0.1,1.1-0.3,1.7-0.5c0.6-0.2,1.3-0.4,2.1-0.5c0.8-0.2,1.6-0.3,2.6-0.4c0.9-0.1,2-0.2,3.2-0.2
		c3.5,0,5.9,1,7.3,3.1c1.3,2,1.6,4.8,0.7,8.4l-3.1,12.8H450l3-12.5c0.2-0.8,0.3-1.5,0.4-2.3c0.1-0.7,0.1-1.4,0-1.9
		c-0.1-0.6-0.4-1-0.8-1.4c-0.4-0.3-1.1-0.5-2-0.5c-0.9,0-1.8,0.1-2.7,0.3l-4.4,18.3h-6.7L442.2,330.1z"/>
</g>
</svg>
