<?xml version="1.0" encoding="utf-8"?>
<!-- Generator: Adobe Illustrator 21.1.0, SVG Export Plug-In . SVG Version: 6.00 Build 0)  -->
<svg version="1.1" id="Layer_1" xmlns="http://www.w3.org/2000/svg" xmlns:xlink="http://www.w3.org/1999/xlink" x="0px" y="0px"
	 viewBox="0 0 155 59" style="enable-background:new 0 0 155 59;" xml:space="preserve">
<style type="text/css">
	.st0{fill:#FFFFFF;}
</style>
<g>
	<path class="st0" d="M6.4,16.2c-1.8,0-3.3,0.7-4.5,2c-1.2,1.3-1.8,2.9-1.8,4.7c0,1.8,0.7,3.4,1.9,4.7c1.3,1.3,2.8,1.9,4.5,1.9
		c1.8,0,3.3-0.7,4.5-2c1.2-1.3,1.8-2.9,1.8-4.7c0-1.8-0.7-3.4-1.9-4.7C9.7,16.8,8.2,16.2,6.4,16.2z"/>
	<g>
		<path class="st0" d="M71.7,7.7c-4.3,0-8,1.5-11,4.4c-3,2.9-4.5,6.5-4.5,10.8c0,4.2,1.5,7.8,4.4,10.7c3,3,6.5,4.4,10.7,4.4
			c4.2,0,7.8-1.5,10.8-4.4c3-3,4.4-6.5,4.4-10.8c0-4.2-1.5-7.7-4.4-10.7C79.3,9.2,75.8,7.7,71.7,7.7z M76,27.5c-1.2,1.3-2.7,2-4.5,2
			c-1.8,0-3.3-0.6-4.5-1.9c-1.3-1.3-1.9-2.8-1.9-4.7c0-1.8,0.6-3.4,1.8-4.7c1.2-1.3,2.7-2,4.5-2c1.8,0,3.3,0.6,4.5,1.9
			c1.3,1.3,1.9,2.8,1.9,4.7C77.8,24.7,77.2,26.2,76,27.5z"/>
		<path class="st0" d="M39,7.7c-2.5,0-4.8,0.5-6.8,1.5v-9h-8.6c0,0,0,22.5,0,22.7c0,4.2,1.5,7.8,4.4,10.7c3,3,6.5,4.4,10.7,4.4
			c4.2,0,7.8-1.5,10.8-4.4c3-3,4.4-6.5,4.4-10.8c0-4.2-1.5-7.7-4.4-10.7C46.6,9.2,43.1,7.7,39,7.7z M43.2,27.6
			c-1.2,1.3-2.7,1.9-4.5,1.9c-1.8,0-3.3-0.6-4.5-1.9c-1.3-1.3-1.9-2.9-1.9-4.7c0-1.8,0.6-3.4,1.9-4.7c1.2-1.3,2.7-1.9,4.5-1.9
			c1.8,0,3.3,0.6,4.5,1.9c1.2,1.3,1.9,2.9,1.9,4.7C45.1,24.7,44.5,26.3,43.2,27.6z"/>
		<polygon class="st0" points="118,8.5 108.4,8.5 98.2,22.5 98.2,0.2 89.6,0.2 89.6,37.4 96.3,37.4 103.8,27.4 111,37.4 120.9,37.4 
			108.6,20.9 		"/>
		<path class="st0" d="M141.8,8.4c0,0,0,12.6,0,14.5c0,1.9-0.8,3.4-2.1,4.7c-1.2,1.3-2.7,1.9-4.5,1.9c-1.8,0-3.3-0.6-4.5-1.9
			c-1.3-1.3-2.1-2.9-2.1-4.7c0-1.8,0-14.4,0-14.4H120c0,0,0,10.2,0,14.4c0,4.2,1.5,7.8,4.5,10.7c3,3,6.5,4.4,10.7,4.4
			c4.2,0,7.8-1.5,10.8-4.4c3-3,4.4-6.5,4.4-10.8c0-4.2,0-14.5,0-14.5H141.8z"/>
	</g>
	<g>
		<g>
			<path class="st0" d="M28.3,51.6h-2.6v4.1h-2.3V42.9h5.1c3,0,4.9,1.7,4.9,4.3C33.4,50.1,31.1,51.6,28.3,51.6z M28.4,45h-2.6v4.6
				h2.6c1.7,0,2.8-0.9,2.8-2.3C31.1,45.8,30.1,45,28.4,45z"/>
			<path class="st0" d="M41.3,55.8v-1.2c-0.7,0.8-1.7,1.4-3.1,1.4c-1.8,0-3.5-1-3.5-3v0c0-2.1,1.7-3.1,3.9-3.1
				c1.2,0,1.9,0.2,2.7,0.4V50c0-1.3-0.8-2.1-2.4-2.1c-1.1,0-1.9,0.2-2.8,0.6l-0.6-1.8c1.1-0.5,2.1-0.8,3.7-0.8
				c2.9,0,4.3,1.5,4.3,4.1v5.8H41.3z M41.3,51.7c-0.6-0.2-1.4-0.4-2.2-0.4c-1.4,0-2.2,0.6-2.2,1.6v0c0,0.9,0.8,1.4,1.9,1.4
				c1.5,0,2.6-0.8,2.6-2V51.7z"/>
			<path class="st0" d="M50.9,56c-0.8,2-1.6,2.7-3.2,2.7c-0.9,0-1.6-0.2-2.3-0.6l0.8-1.7c0.4,0.2,0.8,0.4,1.3,0.4
				c0.6,0,1-0.3,1.4-1.1l-4-9.7h2.4l2.8,7.2l2.5-7.2h2.3L50.9,56z"/>
			<path class="st0" d="M67.7,56c-1.6,0-2.6-0.8-3.3-1.7v1.5h-2.2V42.4h2.2v5.3c0.7-1,1.7-1.8,3.3-1.8c2.3,0,4.5,1.8,4.5,5.1
				C72.2,54.2,70,56,67.7,56z M67.2,47.8c-1.5,0-2.8,1.2-2.8,3.1s1.3,3.1,2.8,3.1c1.5,0,2.8-1.2,2.8-3.1C70,49,68.7,47.8,67.2,47.8z
				"/>
			<path class="st0" d="M79.2,56c-0.8,2-1.6,2.7-3.2,2.7c-0.9,0-1.6-0.2-2.3-0.6l0.8-1.7c0.4,0.2,0.8,0.4,1.3,0.4
				c0.6,0,1-0.3,1.4-1.1l-4-9.7h2.4l2.8,7.2l2.5-7.2h2.3L79.2,56z"/>
			<path class="st0" d="M97.1,52.6L97.1,52.6l-4.1-6v9.2h-2.2V42.9h2.4l3.9,6.1l3.9-6.1h2.4v12.9h-2.3v-9.2L97.1,52.6z"/>
			<path class="st0" d="M111.1,56c-3,0-5.1-2.3-5.1-5c0-2.8,2.2-5.1,5.2-5.1c3,0,5.2,2.3,5.2,5.1C116.3,53.7,114.1,56,111.1,56z
				 M111.1,47.8c-1.8,0-2.9,1.4-2.9,3.1c0,1.7,1.2,3.1,3,3.1c1.8,0,2.9-1.4,2.9-3.1C114.1,49.2,112.8,47.8,111.1,47.8z"/>
			<path class="st0" d="M124.1,56c-1.6,0-2.6-0.8-3.3-1.7v1.5h-2.2V42.4h2.2v5.3c0.7-1,1.7-1.8,3.3-1.8c2.3,0,4.5,1.8,4.5,5.1
				C128.6,54.2,126.4,56,124.1,56z M123.6,47.8c-1.5,0-2.8,1.2-2.8,3.1s1.3,3.1,2.8,3.1c1.5,0,2.8-1.2,2.8-3.1
				C126.3,49,125.1,47.8,123.6,47.8z"/>
			<path class="st0" d="M130.9,44.6v-2.1h2.4v2.1H130.9z M131,55.8v-9.7h2.2v9.7H131z"/>
			<path class="st0" d="M136.3,55.8V42.4h2.2v13.4H136.3z"/>
			<path class="st0" d="M145.9,54.2c1.1,0,1.9-0.4,2.6-1.2l1.3,1.2c-0.9,1.1-2.2,1.8-4,1.8c-2.8,0-5-2-5-5.1c0-2.8,2-5.1,4.7-5.1
				c3.1,0,4.7,2.4,4.7,5.2c0,0.2,0,0.4,0,0.6h-7.1C143.3,53.3,144.4,54.2,145.9,54.2z M148,50.2c-0.1-1.4-1-2.6-2.5-2.6
				c-1.4,0-2.3,1-2.5,2.6H148z"/>
		</g>
		<g>
			<path class="st0" d="M150.8,45.1h-0.5v-2.3h-0.9v-0.4h2.2v0.4h-0.9V45.1z"/>
			<path class="st0" d="M153.6,44.4L153.6,44.4l-0.9-1.3v2h-0.5v-2.7h0.5l0.8,1.3l0.8-1.3h0.5v2.7h-0.5v-2L153.6,44.4z"/>
		</g>
	</g>
</g>
</svg>
