<?xml version="1.0" encoding="utf-8"?>
<!-- Generator: Adobe Illustrator 21.1.0, SVG Export Plug-In . SVG Version: 6.00 Build 0)  -->
<svg version="1.1" id="Layer_1" xmlns="http://www.w3.org/2000/svg" xmlns:xlink="http://www.w3.org/1999/xlink" x="0px" y="0px"
	 viewBox="0 0 158 40" style="enable-background:new 0 0 158 40;" xml:space="preserve">
<style type="text/css">
	.st0{fill:#FFFFFF;}
</style>
<g>
	<path class="st0" d="M0.4,22.3c0.1-3.7,1.8-6.1,4.4-7.9c2.3-1.6,5-2.5,7.8-3c3.6-0.6,7.3-0.6,10.8,0.5c3.6,1.1,6.8,2.8,9,5.9
		c0.4,0.6,0.7,1.3,1.1,2c0.2,0.4,0.3,0.8-0.1,1.1c-0.4,0.3-0.8,0-1.1-0.3c-1.5-1.6-3.4-2.8-5.5-3.6c-3.3-1.3-6.7-1.5-10.1-0.5
		c-2.4,0.7-4.2,2.4-4.2,5.4c0,2.2,0,4.3,0,6.5c0,0.5,0,1-0.1,1.4c-0.2,0.9-0.8,1.4-1.7,1.5c-1.4,0.1-2.6-0.3-3.9-0.8
		c-2.8-1.1-5-2.9-6-5.9C0.6,23.8,0.5,22.8,0.4,22.3z"/>
	<path class="st0" d="M21.3,25.5c0-1.5-0.1-3,0-4.5c0.1-1.2,1-1.9,2.2-1.7c3.3,0.4,6.1,1.7,8.2,4.4c2.8,3.7,2,8.7-1.5,11.7
		c-2.7,2.3-5.9,3.5-9.4,3.9c-2,0.2-4.1,0.4-6.1,0.2C9.5,39.1,5,37.3,1.7,33.3c-0.6-0.7-1-1.6-1.5-2.5c0-0.1-0.1-0.2-0.1-0.2
		c0.1-0.3,0.1-0.8,0.3-0.8c0.2-0.1,0.7,0,0.9,0.2c0.8,0.6,1.6,1.4,2.4,2c2.2,1.6,4.7,2.4,7.3,2.7c2,0.2,3.9,0.1,5.8-0.4
		c2.8-0.7,4.3-2.7,4.3-5.6C21.2,27.6,21.2,26.5,21.3,25.5C21.2,25.5,21.3,25.5,21.3,25.5z"/>
	<path class="st0" d="M63.8,34.2c0.1,0.3,0.1,0.6,0.2,0.8c0.2,0.9,0.3,1.8,0.5,2.7c0.1,0.4,0.1,0.6-0.4,0.8
		c-6.2,2.5-14.8,0.7-18.6-5.6c-1.8-2.9-2.3-6.1-1.9-9.4c0.3-3,1.4-5.7,3.5-8c2.3-2.5,5.2-3.9,8.5-4.4c2.8-0.5,5.6-0.3,8.3,0.7
		c0.6,0.2,0.7,0.5,0.6,1.1c-0.2,0.9-0.3,1.8-0.5,2.8c-0.1,0.7-0.2,0.7-0.8,0.4c-3.7-1.8-7.4-1.8-10.9,0.4c-3.2,1.9-4.5,5-4.5,8.6
		c-0.1,5.3,3,9.2,8.1,10.2c2.5,0.5,4.9,0.2,7.2-1c0.2-0.1,0.4-0.2,0.5-0.3C63.6,34.2,63.6,34.2,63.8,34.2z"/>
	<path class="st0" d="M80.4,26.2c-0.2-0.9-0.2-1.7-0.5-2.4c-0.4-1.1-1.5-1.4-2.5-1.4c-2.2,0-4.5,0-6.7,0c-0.6,0-0.8-0.2-0.7-0.8
		c0.2-0.8,0.3-1.7,0.4-2.5c0.1-0.4,0.3-0.5,0.6-0.5c2.4,0,4.9,0,7.3,0.1c3,0.1,5.2,2.2,5.6,5.2c0.1,0.9,0.2,1.8,0.2,2.7
		c0,3.9,0,7.9,0,11.8c0,0.6-0.2,0.8-0.8,0.8c-1-0.1-1.9,0-3,0c0-0.8,0-1.6,0-2.5c-0.3,0.3-0.4,0.4-0.6,0.6c-2.1,2.1-4.5,2.9-7.4,2.2
		c-3.1-0.8-5-3.5-4.8-6.7c0.2-3.6,2.9-5.5,5.8-6.2c1.4-0.3,2.9-0.3,4.4-0.4C78.6,26.1,79.4,26.2,80.4,26.2z M80.2,29.7
		c-1.4,0-2.8-0.1-4.2,0c-1,0.1-2.1,0.4-3.1,0.8c-1.2,0.5-1.8,1.7-1.6,3c0.2,1.4,1,2.2,2.3,2.5c1.7,0.3,3.2-0.1,4.6-1.1
		C80,33.6,80.4,31.7,80.2,29.7z"/>
	<path class="st0" d="M126.6,26.3c-0.1-0.8-0.1-1.4-0.2-1.9c-0.3-1.3-1.1-2-2.7-2c-2.3,0-4.5,0-6.8,0c-0.8,0-0.8,0-0.7-0.8
		c0.1-0.8,0.2-1.5,0.4-2.3c0.1-0.4,0.2-0.7,0.7-0.7c2.4,0.1,4.7,0,7.1,0.1c3.4,0.2,5.7,2.4,5.8,5.8c0.2,4.7,0.1,9.5,0.1,14.2
		c0,0.2-0.3,0.5-0.4,0.5c-1.1,0-2.2,0-3.4,0c0-0.8,0-1.5,0-2.5c-0.3,0.3-0.5,0.4-0.6,0.6c-2.4,2.4-6,3.1-8.9,1.6
		c-2-1.1-3.2-2.8-3.3-5.1c-0.2-2.6,0.7-4.6,2.9-6c1.5-0.9,3.1-1.4,4.8-1.4C123.1,26.3,124.8,26.3,126.6,26.3z M126.3,29.6
		c-1.2,0-2.5-0.1-3.6,0c-1.2,0.1-2.4,0.4-3.5,0.8c-1.3,0.4-1.8,1.6-1.7,2.8c0.2,1.5,0.9,2.4,2.3,2.7
		C123.7,36.7,126.9,33.6,126.3,29.6z"/>
	<path class="st0" d="M147.8,16c-1.7-1-3.5-1.3-5.2-1.2c-1,0.1-2.1,0.3-3,0.7c-1.9,0.8-2.5,3.7-0.7,5c1,0.8,2,1.4,3.1,2
		c1.5,0.9,3.1,1.7,4.6,2.8c2.6,1.8,3.7,4.3,3.3,7.5c-0.5,3.4-2.6,5.4-5.8,6.3c-3.3,1-6.6,0.6-9.8-0.7c-0.2-0.1-0.4-0.4-0.4-0.6
		c0.2-1.2,0.4-2.4,0.7-3.8c0.3,0.2,0.6,0.3,0.8,0.4c2.2,1.3,4.6,1.6,7,1.1c2.2-0.4,3.5-2.3,3.4-4.4c0-0.9-0.5-1.6-1.2-2.1
		c-1.6-1.1-3.2-2.1-4.8-3c-1.5-0.9-3.1-1.8-4.3-3.1c-3.1-3.3-2-8.6,2.2-10.8c1.9-1,4-1.4,6.1-1.2c1.4,0.1,2.8,0.5,4.2,0.8
		c0.2,0,0.5,0.4,0.5,0.5C148.2,13.5,148,14.7,147.8,16z"/>
	<path class="st0" d="M107.4,22.4c0,0.9,0,1.8,0,2.6c0,2.9,0,5.7,0,8.6c0,2,1,2.8,3,2.1c0.5-0.2,0.9-0.4,1.5-0.6
		c0,0.2,0.1,0.4,0.1,0.5c0,1,0,2,0,3c0,0.2-0.1,0.5-0.3,0.6c-1.8,0.6-3.6,0.8-5.4,0.1c-1.6-0.6-2.3-1.9-2.6-3.5
		c-0.1-0.8-0.2-1.7-0.2-2.5c0-3.4,0-6.7,0-10.1c0-0.2,0-0.5,0-0.8c-0.9,0-1.8,0-2.7,0c-0.8,0-0.8,0-0.7-0.8c0.1-0.8,0.3-1.6,0.4-2.5
		c0.1-0.4,0.3-0.5,0.7-0.5c0.7,0,1.5,0,2.3,0c0-1,0-2,0-3c0-0.5,0.2-0.7,0.6-0.9c1.1-0.3,2.1-0.7,3.3-1.1c0,1.7,0,3.3,0,5
		c1.7,0,3.2,0,4.9,0c-0.1,0.9-0.2,1.8-0.4,2.6c-0.2,1.2-0.2,1.2-1.4,1.2C109.4,22.4,108.4,22.4,107.4,22.4z"/>
	<path class="st0" d="M92,21.2c1.3-2,3.2-2.6,5.5-2.6c0.5,0,0.6,0.2,0.5,0.6c-0.2,0.8-0.4,1.6-0.5,2.4c-0.1,0.6-0.3,0.7-0.9,0.7
		c-0.6,0-1.2,0.1-1.8,0.3c-1.7,0.5-2.6,1.9-2.7,3.9c0,3.9,0,7.8-0.1,11.7c0,0.3,0,0.6,0,0.9c-1.2,0-2.4,0-3.5,0
		c-0.1,0-0.3-0.2-0.4-0.3c-0.1-0.1,0-0.3,0-0.5c0-6.3,0-12.7,0-19c0-0.9,0-0.9,0.9-0.9c0.8,0,1.6,0,2.4,0c0.5,0,0.6,0.2,0.6,0.6
		C92,19.8,92,20.4,92,21.2z"/>
	<path class="st0" d="M153.1,18.8c1.2,0,2.3,0,3.5,0c0.2,0,0.3,0.2,0.4,0.4c0.1,0.1,0,0.3,0,0.4c0,6.3,0,12.5,0,18.8
		c0,0.7-0.2,0.9-0.9,0.8c-0.8-0.1-1.6,0-2.4,0c-0.5,0-0.7-0.1-0.7-0.7c0-3.6,0-7.1,0-10.7c0-2.8,0-5.6,0-8.3
		C153.1,19.3,153.1,19.1,153.1,18.8z"/>
	<path class="st0" d="M16.8,7.3c-1.1-0.1-2-0.5-2.8-1.1c-1.7-1.4-1.7-3.7,0-5.1C15.6,0,18,0,19.5,1.2c1.9,1.5,1.7,4.3-0.5,5.4
		C18.4,7,17.6,7.1,16.8,7.3z"/>
	<path class="st0" d="M155.1,10.6c1.5,0,2.8,1.3,2.8,2.7c0,1.5-1.3,2.7-2.8,2.7c-1.5,0-2.7-1.2-2.7-2.8
		C152.3,11.8,153.5,10.6,155.1,10.6z"/>
</g>
</svg>
