<?xml version="1.0" encoding="utf-8"?>
<!-- Generator: Adobe Illustrator 21.1.0, SVG Export Plug-In . SVG Version: 6.00 Build 0)  -->
<svg version="1.1" id="Layer_1" xmlns="http://www.w3.org/2000/svg" xmlns:xlink="http://www.w3.org/1999/xlink" x="0px" y="0px"
	 viewBox="0 0 72 63" style="enable-background:new 0 0 72 63;" xml:space="preserve">
<style type="text/css">
	.st0{fill:#FFFFFF;}
	.st1{fill:none;}
</style>
<g>
	<rect x="8.3" y="35.2" class="st0" width="11.4" height="19"/>
	<circle class="st0" cx="14.1" cy="25.8" r="6.5"/>
	<path class="st0" d="M69.2,17.5c-1.5-3.9-3.8-7.2-6.8-9.8C57.3,3.1,50,0.6,41.3,0.4v0h-41v62.2h41v0c9-0.1,16-2.3,21.1-6.6
		c6.1-5.2,9.2-13.4,9.2-24.4C71.6,26.2,70.8,21.5,69.2,17.5z M40.6,58.5c-1.4,0-32.5,0-36.1,0c0-3.7,0-50.2,0-53.9
		c3.6,0,34.7,0,36.1,0c7.9,0,14.6,2.2,19.1,6.2c5.2,4.6,7.8,11.6,7.8,20.7C67.5,49.6,58.7,58.5,40.6,58.5z"/>
	<circle class="st1" cx="14.1" cy="25.8" r="6.5"/>
	<rect x="8.3" y="35.2" class="st1" width="11.4" height="19"/>
	<path class="st1" d="M59.7,10.8c-4.6-4.1-11.2-6.2-19.1-6.2c-1.4,0-32.5,0-36.1,0c0,3.7,0,50.2,0,53.9c3.6,0,34.7,0,36.1,0
		c18.1,0,27-8.8,27-27C67.5,22.3,64.9,15.4,59.7,10.8z M19.7,54.4H8.3v-19h11.4V54.4z M14.1,32.4c-3.6,0-6.5-2.9-6.5-6.5
		c0-3.6,2.9-6.5,6.5-6.5c3.6,0,6.5,2.9,6.5,6.5C20.6,29.5,17.7,32.4,14.1,32.4z M63.8,32.2c-0.1,18.6-12.9,22.2-24.9,22.2h0.6h-0.6
		H24.9V32.2h-2.8V20.8h2.8V9.6h13.9h0.6h-0.6c11.6,0,23.8,4.4,24.9,20.2c0.2,0,0.3,0,0.3,0v2.4H63.8z"/>
	<g>
		<path class="st0" d="M55.1,20.5h2.8c0,0,0,8.3,0,8.9c0.4,0,4.1,0,5.1,0C62,13.5,49.7,9.1,38.1,9.1H24.2v11.3h1.5
			c0.9,0,1.6,0.1,2.1,0.2c0.7,0.2,1.3,0.6,1.8,1.1c0.5,0.5,0.8,1.1,1.1,1.9c0.2,0.7,0.4,1.6,0.4,2.6c0,0.9-0.1,1.7-0.3,2.4
			c-0.3,0.8-0.7,1.5-1.2,2c-0.4,0.4-1,0.7-1.6,0.9c-0.5,0.2-1.2,0.2-2,0.2h-1.6v22.2h13.9c12,0,24.9-3.6,24.9-22.2h-8V20.5z
			 M41.7,31.7h-8.8V20.4h8.6v2.4c0,0-5.3,0-5.8,0c0,0.4,0,1.4,0,1.8c0.5,0,5.4,0,5.4,0V27c0,0-4.9,0-5.4,0c0,0.4,0,1.9,0,2.3
			c0.5,0,6,0,6,0V31.7z M51,31.7c0,0-0.8-2.1-0.9-2.4c-0.3,0-3.5,0-3.9,0c-0.1,0.3-0.9,2.4-0.9,2.4h-2.9l4.4-11.4h2.7L54,31.7H51z"
			/>
		<path class="st0" d="M24.2,29.3C24.2,29.3,24.2,29.3,24.2,29.3l0-6.5c0,0,0,0,0,0C24.2,23.3,24.2,28.8,24.2,29.3z"/>
		<path class="st0" d="M49.2,26.9c-0.2-0.5-0.7-2-1.1-2.8c-0.3,0.9-0.9,2.3-1,2.8C47.6,26.9,48.7,26.9,49.2,26.9z"/>
		<path class="st0" d="M25.5,29.3c0.6,0,1,0,1.2-0.1c0.3-0.1,0.6-0.2,0.8-0.4c0.2-0.2,0.4-0.5,0.5-0.9c0.1-0.5,0.2-1.1,0.2-1.9
			c0-0.8-0.1-1.4-0.2-1.8c-0.1-0.4-0.3-0.7-0.5-0.9c-0.2-0.2-0.5-0.4-0.9-0.4c-0.2,0-0.7-0.1-1.7-0.1c0,0-0.4,0-0.7,0v6.5
			C24.6,29.3,25.5,29.3,25.5,29.3z"/>
	</g>
</g>
</svg>
