<?xml version="1.0" encoding="utf-8"?>
<!-- Generator: Adobe Illustrator 21.1.0, SVG Export Plug-In . SVG Version: 6.00 Build 0)  -->
<svg version="1.1" id="Layer_1" xmlns="http://www.w3.org/2000/svg" xmlns:xlink="http://www.w3.org/1999/xlink" x="0px" y="0px"
	 viewBox="0 0 61 47" style="enable-background:new 0 0 61 47;" xml:space="preserve">
<style type="text/css">
	.st0{fill:#FFFFFF;}
</style>
<path class="st0" d="M58.9,30.2v-0.6h0.2v-0.1h-0.6v0.1h0.2v0.6H58.9z M60.1,30.2v-0.7h-0.2L59.7,30l-0.2-0.5h-0.2v0.7h0.1v-0.5
	l0.2,0.5h0.1l0.2-0.5v0.5H60.1z M18.6,46.7v-3.1c0-1.2-0.7-2-1.9-2c-0.6,0-1.3,0.2-1.7,0.9c-0.3-0.5-0.9-0.9-1.6-0.9
	c-0.5,0-1,0.2-1.4,0.7v-0.6h-1.1v4.9h1.1V44c0-0.9,0.5-1.3,1.2-1.3c0.7,0,1.1,0.5,1.1,1.3v2.8h1.1V44c0-0.9,0.5-1.3,1.2-1.3
	c0.7,0,1.1,0.5,1.1,1.3v2.8H18.6z M24.6,44.2v-2.5h-1.1v0.6c-0.3-0.4-0.9-0.7-1.6-0.7c-1.4,0-2.5,1.1-2.5,2.6c0,1.5,1.1,2.6,2.5,2.6
	c0.7,0,1.2-0.3,1.6-0.7v0.6h1.1V44.2z M20.6,44.2c0-0.9,0.6-1.6,1.5-1.6c0.9,0,1.5,0.7,1.5,1.6c0,0.9-0.6,1.6-1.5,1.6
	C21.2,45.8,20.6,45.1,20.6,44.2z M47.6,41.6c0.4,0,0.7,0.1,1.1,0.2c0.3,0.1,0.6,0.3,0.8,0.5c0.2,0.2,0.4,0.5,0.6,0.8
	c0.1,0.3,0.2,0.7,0.2,1c0,0.4-0.1,0.7-0.2,1c-0.1,0.3-0.3,0.6-0.6,0.8c-0.2,0.2-0.5,0.4-0.8,0.5c-0.3,0.1-0.7,0.2-1.1,0.2
	c-0.4,0-0.7-0.1-1.1-0.2c-0.3-0.1-0.6-0.3-0.8-0.5c-0.2-0.2-0.4-0.5-0.6-0.8c-0.1-0.3-0.2-0.7-0.2-1c0-0.4,0.1-0.7,0.2-1
	c0.1-0.3,0.3-0.6,0.6-0.8c0.2-0.2,0.5-0.4,0.8-0.5C46.9,41.7,47.3,41.6,47.6,41.6z M47.6,42.6c-0.2,0-0.4,0-0.6,0.1
	c-0.2,0.1-0.4,0.2-0.5,0.3c-0.1,0.1-0.2,0.3-0.3,0.5c-0.1,0.2-0.1,0.4-0.1,0.6s0,0.4,0.1,0.6c0.1,0.2,0.2,0.4,0.3,0.5
	c0.1,0.1,0.3,0.2,0.5,0.3c0.2,0.1,0.4,0.1,0.6,0.1s0.4,0,0.6-0.1c0.2-0.1,0.4-0.2,0.5-0.3c0.1-0.1,0.2-0.3,0.3-0.5
	c0.1-0.2,0.1-0.4,0.1-0.6s0-0.4-0.1-0.6c-0.1-0.2-0.2-0.4-0.3-0.5c-0.1-0.1-0.3-0.2-0.5-0.3C48.1,42.7,47.9,42.6,47.6,42.6z
	 M30.5,44.2c0-1.5-1-2.6-2.3-2.6c-1.4,0-2.5,1.1-2.5,2.6c0,1.6,1.1,2.6,2.5,2.6c0.7,0,1.4-0.2,2-0.7l-0.5-0.8
	c-0.4,0.3-0.9,0.5-1.4,0.5c-0.7,0-1.3-0.3-1.5-1.2h3.7C30.5,44.5,30.5,44.4,30.5,44.2z M26.8,43.8c0.1-0.7,0.5-1.2,1.3-1.2
	c0.7,0,1.1,0.4,1.3,1.2H26.8z M35,43c-0.3-0.2-0.9-0.4-1.5-0.4c-0.6,0-0.9,0.2-0.9,0.6c0,0.3,0.4,0.4,0.8,0.5l0.5,0.1
	c1.1,0.2,1.7,0.6,1.7,1.5c0,0.9-0.8,1.6-2.3,1.6c-0.8,0-1.6-0.2-2.1-0.6l0.5-0.8c0.4,0.3,0.9,0.5,1.6,0.5c0.7,0,1.1-0.2,1.1-0.6
	c0-0.3-0.3-0.4-0.9-0.5l-0.5-0.1c-1.1-0.2-1.7-0.7-1.7-1.5c0-1,0.8-1.6,2.1-1.6c0.8,0,1.5,0.2,2,0.5L35,43z M40.2,42.7h-1.8V45
	c0,0.5,0.2,0.8,0.7,0.8c0.3,0,0.6-0.1,1-0.3l0.3,0.9c-0.3,0.2-0.9,0.4-1.3,0.4c-1.3,0-1.7-0.7-1.7-1.8v-2.3h-1v-1h1l0-1.5h1.1l0,1.5
	h1.8V42.7z M43.9,41.6c0.2,0,0.5,0,0.8,0.1l-0.3,1c-0.2-0.1-0.5-0.1-0.7-0.1c-0.7,0-1.1,0.5-1.1,1.3v2.8h-1.1v-4.9h1.1v0.6
	C42.9,41.9,43.3,41.6,43.9,41.6L43.9,41.6z M51.4,46c0.1,0,0.1,0,0.2,0c0.1,0,0.1,0.1,0.2,0.1c0,0,0.1,0.1,0.1,0.2
	c0,0.1,0,0.1,0,0.2c0,0.1,0,0.1,0,0.2c0,0.1-0.1,0.1-0.1,0.2c0,0-0.1,0.1-0.2,0.1c-0.1,0-0.1,0-0.2,0c-0.1,0-0.1,0-0.2,0
	c-0.1,0-0.1-0.1-0.2-0.1c0,0-0.1-0.1-0.1-0.2c0-0.1,0-0.1,0-0.2c0-0.1,0-0.1,0-0.2c0-0.1,0.1-0.1,0.1-0.2c0,0,0.1-0.1,0.2-0.1
	C51.2,46,51.3,46,51.4,46z M51.4,46.9c0.1,0,0.1,0,0.1,0s0.1,0,0.1-0.1c0,0,0.1-0.1,0.1-0.1c0,0,0-0.1,0-0.1c0-0.1,0-0.1,0-0.1
	c0,0,0-0.1-0.1-0.1c0,0-0.1-0.1-0.1-0.1c0,0-0.1,0-0.1,0c-0.1,0-0.1,0-0.2,0c0,0-0.1,0-0.1,0.1c0,0-0.1,0.1-0.1,0.1c0,0,0,0.1,0,0.1
	c0,0.1,0,0.1,0,0.1c0,0,0,0.1,0.1,0.1c0,0,0.1,0.1,0.1,0.1C51.2,46.8,51.3,46.9,51.4,46.9z M51.4,46.2c0.1,0,0.1,0,0.1,0
	c0,0,0,0.1,0,0.1c0,0,0,0.1,0,0.1c0,0-0.1,0-0.1,0l0.1,0.2h-0.1l-0.1-0.2h0v0.2h-0.1v-0.5H51.4z M51.3,46.3v0.1h0.1c0,0,0,0,0.1,0
	c0,0,0,0,0,0c0,0,0,0,0,0c0,0,0,0-0.1,0H51.3z M28.8,33.8c0.1,0.1,0.3,0.2,0.5,0.4c-3,2-6.5,3.1-10.3,3.1C8.7,37.3,0.3,29,0.3,18.7
	S8.7,0,19,0c3.8,0,7.4,1.1,10.3,3.1c-0.2,0.1-0.3,0.2-0.5,0.4c-4.4,3.8-6.9,9.3-6.9,15.2C21.9,24.5,24.5,30,28.8,33.8z M42,0
	c-3.8,0-7.4,1.1-10.3,3.1c0.2,0.1,0.3,0.2,0.5,0.4c4.4,3.8,6.9,9.3,6.9,15.2c0,5.8-2.5,11.3-6.9,15.2c-0.1,0.1-0.3,0.2-0.5,0.4
	c3,2,6.5,3.1,10.3,3.1c10.3,0,18.6-8.3,18.6-18.6C60.7,8.4,52.3,0,42,0z M30.5,4c-0.2,0.2-0.5,0.4-0.7,0.6
	c-3.9,3.4-6.4,8.4-6.4,14.1c0,5.6,2.5,10.6,6.4,14.1c0.2,0.2,0.5,0.4,0.7,0.6c0.2-0.2,0.5-0.4,0.7-0.6c3.9-3.4,6.4-8.4,6.4-14.1
	c0-5.6-2.5-10.6-6.4-14.1C31,4.4,30.7,4.2,30.5,4"/>
</svg>
