<?xml version="1.0" encoding="utf-8"?>
<!-- Generator: Adobe Illustrator 21.1.0, SVG Export Plug-In . SVG Version: 6.00 Build 0)  -->
<svg version="1.1" id="Layer_1" xmlns="http://www.w3.org/2000/svg" xmlns:xlink="http://www.w3.org/1999/xlink" x="0px" y="0px"
	 viewBox="0 0 59 46" style="enable-background:new 0 0 59 46;" xml:space="preserve">
<style type="text/css">
	.st0{fill:#FFFFFF;}
</style>
<path class="st0" d="M10.8,45.6v-3c0-1.1-0.7-1.9-1.9-1.9c-0.6,0-1.2,0.2-1.7,0.9c-0.3-0.5-0.9-0.9-1.6-0.9c-0.5,0-1,0.2-1.4,0.7
	v-0.6h-1v4.8h1.1v-2.7c0-0.8,0.5-1.3,1.2-1.3c0.7,0,1,0.5,1,1.3v2.7h1.1v-2.7c0-0.8,0.5-1.3,1.2-1.3c0.7,0,1.1,0.5,1.1,1.3v2.7H10.8
	z M26.5,40.8h-1.7v-1.5h-1.1v1.5h-1v1h1v2.2c0,1.1,0.4,1.8,1.7,1.8c0.5,0,1-0.1,1.3-0.4l-0.3-0.9c-0.3,0.2-0.7,0.3-0.9,0.3
	c-0.5,0-0.7-0.3-0.7-0.8v-2.2h1.7V40.8z M35.4,40.6c-0.6,0-1,0.3-1.3,0.7v-0.6h-1v4.8h1v-2.7c0-0.8,0.3-1.2,1-1.2
	c0.2,0,0.4,0,0.7,0.1l0.3-1C35.9,40.7,35.6,40.6,35.4,40.6L35.4,40.6z M21.9,41.1c-0.5-0.3-1.2-0.5-2-0.5c-1.2,0-2,0.6-2,1.5
	c0,0.8,0.6,1.3,1.7,1.4l0.5,0.1c0.6,0.1,0.8,0.2,0.8,0.5c0,0.4-0.4,0.6-1.1,0.6c-0.7,0-1.2-0.2-1.6-0.5l-0.5,0.8
	c0.6,0.4,1.3,0.6,2.1,0.6c1.4,0,2.2-0.7,2.2-1.6c0-0.8-0.6-1.3-1.7-1.4l-0.5-0.1c-0.5-0.1-0.8-0.2-0.8-0.5c0-0.4,0.3-0.6,0.9-0.6
	c0.6,0,1.2,0.2,1.5,0.4L21.9,41.1z M50,40.6c-0.6,0-1,0.3-1.3,0.7v-0.6h-1v4.8h1v-2.7c0-0.8,0.3-1.2,1-1.2c0.2,0,0.4,0,0.7,0.1
	l0.3-1C50.5,40.7,50.2,40.6,50,40.6L50,40.6z M36.5,43.2c0,1.5,1,2.5,2.6,2.5c0.7,0,1.2-0.2,1.7-0.6l-0.5-0.8
	c-0.4,0.3-0.8,0.4-1.3,0.4c-0.8,0-1.5-0.6-1.5-1.5c0-0.9,0.6-1.5,1.5-1.5c0.5,0,0.9,0.2,1.3,0.4l0.5-0.8c-0.5-0.4-1-0.6-1.7-0.6
	C37.5,40.6,36.5,41.7,36.5,43.2L36.5,43.2z M46.3,43.2v-2.4h-1v0.6c-0.3-0.4-0.8-0.7-1.5-0.7c-1.4,0-2.4,1.1-2.4,2.5
	c0,1.5,1.1,2.5,2.4,2.5c0.7,0,1.2-0.3,1.5-0.7v0.6h1V43.2z M42.4,43.2c0-0.8,0.6-1.5,1.5-1.5c0.9,0,1.5,0.7,1.5,1.5
	c0,0.9-0.6,1.5-1.5,1.5C43,44.7,42.4,44,42.4,43.2L42.4,43.2z M29.8,40.6c-1.4,0-2.4,1-2.4,2.5c0,1.5,1,2.5,2.5,2.5
	c0.7,0,1.4-0.2,2-0.7l-0.5-0.8c-0.4,0.3-0.9,0.5-1.4,0.5c-0.7,0-1.3-0.3-1.4-1.2H32c0-0.1,0-0.3,0-0.4C32,41.7,31.1,40.6,29.8,40.6
	L29.8,40.6z M29.7,41.6c0.7,0,1.1,0.4,1.2,1.2h-2.5C28.6,42.1,29,41.6,29.7,41.6L29.7,41.6z M56,43.2v-4.3h-1v2.5
	c-0.3-0.4-0.8-0.7-1.5-0.7c-1.4,0-2.4,1.1-2.4,2.5c0,1.5,1.1,2.5,2.4,2.5c0.7,0,1.2-0.3,1.5-0.7v0.6h1V43.2z M52.1,43.2
	c0-0.8,0.6-1.5,1.5-1.5c0.9,0,1.5,0.7,1.5,1.5c0,0.9-0.6,1.5-1.5,1.5C52.7,44.7,52.1,44,52.1,43.2L52.1,43.2z M16.7,43.2v-2.4h-1
	v0.6c-0.3-0.4-0.8-0.7-1.5-0.7c-1.4,0-2.4,1.1-2.4,2.5c0,1.5,1.1,2.5,2.4,2.5c0.7,0,1.2-0.3,1.5-0.7v0.6h1V43.2z M12.8,43.2
	c0-0.8,0.6-1.5,1.5-1.5c0.9,0,1.5,0.7,1.5,1.5c0,0.9-0.6,1.5-1.5,1.5C13.4,44.7,12.8,44,12.8,43.2z M57.8,44.9c0.1,0,0.1,0,0.2,0
	c0.1,0,0.1,0.1,0.2,0.1c0,0,0.1,0.1,0.1,0.2s0,0.1,0,0.2c0,0.1,0,0.1,0,0.2c0,0.1-0.1,0.1-0.1,0.2c0,0-0.1,0.1-0.2,0.1
	c-0.1,0-0.1,0-0.2,0c-0.1,0-0.1,0-0.2,0c-0.1,0-0.1-0.1-0.2-0.1c0,0-0.1-0.1-0.1-0.2c0-0.1,0-0.1,0-0.2c0-0.1,0-0.1,0-0.2
	c0-0.1,0.1-0.1,0.1-0.2c0,0,0.1-0.1,0.2-0.1C57.6,44.9,57.7,44.9,57.8,44.9z M57.8,45.7c0.1,0,0.1,0,0.1,0c0,0,0.1,0,0.1-0.1
	c0,0,0.1-0.1,0.1-0.1c0,0,0-0.1,0-0.1c0-0.1,0-0.1,0-0.1c0,0,0-0.1-0.1-0.1c0,0-0.1-0.1-0.1-0.1c0,0-0.1,0-0.1,0c-0.1,0-0.1,0-0.1,0
	c0,0-0.1,0-0.1,0.1c0,0-0.1,0.1-0.1,0.1c0,0,0,0.1,0,0.1c0,0.1,0,0.1,0,0.1c0,0,0,0.1,0.1,0.1c0,0,0.1,0.1,0.1,0.1
	C57.7,45.7,57.7,45.7,57.8,45.7z M57.8,45.1c0.1,0,0.1,0,0.1,0c0,0,0,0.1,0,0.1c0,0,0,0.1,0,0.1c0,0-0.1,0-0.1,0l0.1,0.2h-0.1
	l-0.1-0.2h0v0.2h-0.1v-0.4H57.8z M57.7,45.2v0.1h0.1c0,0,0,0,0.1,0c0,0,0,0,0,0c0,0,0,0,0,0c0,0,0,0-0.1,0H57.7z M57.1,29.6V29h0.2
	v-0.1h-0.6V29H57v0.6H57.1z M58.3,29.6v-0.7h-0.2l-0.2,0.5l-0.2-0.5h-0.2v0.7h0.1V29l0.2,0.5H58l0.2-0.5v0.5H58.3z M27.9,33.1
	c0.1,0.1,0.3,0.2,0.4,0.4c-2.9,1.9-6.3,3-10,3c-10,0-18.1-8.1-18.1-18.1S8.3,0.2,18.3,0.2c3.7,0,7.2,1.1,10,3
	c-0.1,0.1-0.3,0.2-0.4,0.4c-4.3,3.7-6.7,9.1-6.7,14.8C21.2,24,23.6,29.3,27.9,33.1z M40.7,0.2c-3.7,0-7.2,1.1-10,3
	c0.1,0.1,0.3,0.2,0.4,0.4c4.3,3.7,6.7,9.1,6.7,14.8c0,5.7-2.5,11-6.7,14.8c-0.1,0.1-0.3,0.2-0.4,0.4c2.9,1.9,6.3,3,10,3
	c10,0,18.1-8.1,18.1-18.1C58.9,8.3,50.7,0.2,40.7,0.2z M29.5,4c-0.2,0.2-0.5,0.4-0.7,0.6c-3.8,3.3-6.2,8.2-6.2,13.7
	c0,5.5,2.4,10.4,6.2,13.7c0.2,0.2,0.5,0.4,0.7,0.6c0.2-0.2,0.5-0.4,0.7-0.6c3.8-3.3,6.2-8.2,6.2-13.7c0-5.5-2.4-10.4-6.2-13.7
	C30,4.4,29.7,4.2,29.5,4"/>
</svg>
