<?xml version="1.0" encoding="utf-8"?>
<!-- Generator: Adobe Illustrator 21.1.0, SVG Export Plug-In . SVG Version: 6.00 Build 0)  -->
<svg version="1.1" id="Layer_1" xmlns="http://www.w3.org/2000/svg" xmlns:xlink="http://www.w3.org/1999/xlink" x="0px" y="0px"
	 viewBox="0 0 120 55" style="enable-background:new 0 0 120 55;" xml:space="preserve">
<style type="text/css">
	.st0{fill:#FFFFFF;}
</style>
<g>
	<path class="st0" d="M0.4,51.3c0,2,1.7,3.7,3.7,3.7h111.8c2,0,3.7-1.7,3.7-3.7v-1.7H0.4V51.3z"/>
	<path class="st0" d="M115.9,0H4.1C2,0,0.4,1.7,0.4,3.7v1.7h119.3V3.7C119.6,1.7,118,0,115.9,0z"/>
	<path class="st0" d="M101.4,16.9c5.5,0,9.9,4.4,9.9,9.9c0,5.5-4.4,9.9-9.9,9.9c-5.5,0-9.9-4.4-9.9-9.9
		C91.5,21.3,96,16.9,101.4,16.9z"/>
	<path class="st0" d="M101.4,36.7c5.5,0,9.9-4.4,9.9-9.9c0-5.5-4.4-9.9-9.9-9.9c-5.5,0-9.9,4.4-9.9,9.9
		C91.5,32.2,96,36.7,101.4,36.7z"/>
	<path class="st0" d="M19.8,16.9c-5.5,0-9.9,4.4-9.9,9.9c0,5.5,4.4,9.9,9.9,9.9c5.5,0,9.9-4.4,9.9-9.9
		C29.7,21.3,25.3,16.9,19.8,16.9z"/>
	<path class="st0" d="M80.9,21.1L75,27.9l9.3,11.2c2.2,3.4-2,6.8-4.7,3.7l-8.6-10.3l-8.4,9.8c-2.7,3.1-6.9-0.4-4.6-3.8l9.1-10.6
		l-6-7.1L65,16l6.1,7.3l5.2-6.1c2.6-3,5.2-7,8.6-9H0.4v38.7h19.8c9.2,0,13.3-5.5,19.4-12.9l5.7-7l-9.6-11c-2.3-3.4,1.9-6.9,4.6-3.8
		l8.9,10.1l8.2-10c2.6-3.2,6.9,0.2,4.7,3.7l-8.9,10.8l6.2,7l-3.9,4.6l-6.1-6.9l-5.1,6.2c-2.5,3.1-5,6.9-8.4,9.1h83.8V8.2h-19
		C91.5,8,87.2,13.8,80.9,21.1z M35.5,26.8c0,8.6-7,15.6-15.6,15.6c-8.6,0-15.6-7-15.6-15.6c0-8.6,7-15.6,15.6-15.6
		C28.4,11.1,35.5,18.2,35.5,26.8z M117.1,26.8c0,8.6-7,15.6-15.6,15.6c-8.6,0-15.6-7-15.6-15.6c0-8.6,7-15.6,15.6-15.6
		C110.1,11.1,117.1,18.2,117.1,26.8z"/>
</g>
</svg>
