<?xml version="1.0" encoding="utf-8"?>
<!-- Generator: Adobe Illustrator 21.1.0, SVG Export Plug-In . SVG Version: 6.00 Build 0)  -->
<svg version="1.1" id="Layer_1" xmlns="http://www.w3.org/2000/svg" xmlns:xlink="http://www.w3.org/1999/xlink" x="0px" y="0px"
	 viewBox="0 0 188 48" style="enable-background:new 0 0 188 48;" xml:space="preserve">
<style type="text/css">
	.st0{fill:#FFFFFF;}
</style>
<g>
	<path class="st0" d="M24.7,13.4c0-1.4,0.3-2.5,1-3.3c0.3-0.3,0.7-0.6,1.2-0.8c0.5-0.2,1-0.3,1.5-0.3h5.8c2.6,0,3.9,1.4,3.9,4.2v8.6
		c0,1-0.4,1.9-1.2,2.6c-0.7,0.8-1.6,1.1-2.7,1.2h-5.5v6.2h-4.1V13.4z M34,14.2c0-0.6-0.3-1-0.9-1h-3.2c-0.8,0-1.1,0.5-1.2,1.2v5.7
		c0,0.8,0.4,1.2,1.3,1.2h2.9c0.3,0,0.6-0.1,0.8-0.3c0.2-0.2,0.3-0.4,0.3-0.7V14.2z"/>
	<path class="st0" d="M50.8,14.1c0-0.6-0.3-0.9-1.1-0.9h-8.2V9h9.3c2.7,0,4.1,1.3,4.1,3.9v8.8c0,1.1-0.4,2-1,2.8
		c-0.7,0.8-1.6,1.1-2.7,1.1h-5.6c-2.7,0-4.1-1.3-4.1-3.7v-3.4c0-2.6,1.3-3.9,4-3.9h5.4V14.1z M45.5,20.5c0,0.2,0.1,0.4,0.3,0.6
		c0.2,0.2,0.4,0.3,0.7,0.3h3.1c0.7,0,1.1-0.3,1.1-0.8v-1.2c0-0.6-0.4-1-1.1-1h-3.1c-0.4,0-0.7,0.1-0.8,0.2c-0.1,0.2-0.2,0.5-0.2,0.9
		V20.5z"/>
	<path class="st0" d="M66.3,27.6c0.3,0,0.6-0.1,0.8-0.3c0.2-0.2,0.3-0.4,0.3-0.7v-0.4v-0.6h-5.2c-0.7,0-1.2-0.1-1.6-0.3
		c-0.4-0.2-0.9-0.4-1.3-0.9c-0.4-0.4-0.7-0.9-0.9-1.4c-0.2-0.4-0.3-1-0.3-1.7V9h4.1v11c0,0.9,0.4,1.3,1.1,1.3h2.9
		c0.3,0,0.6-0.1,0.9-0.3c0.2-0.2,0.4-0.4,0.4-0.7v-0.5V9h4v18.3c0,1.4-0.4,2.4-1,3.3c-0.7,0.8-1.6,1.2-2.8,1.3h-9.5v-4.2H66.3z"/>
	<path class="st0" d="M74.7,21.4H82c0.7,0,1-0.3,1-0.8v-0.4c0-0.1,0-0.2-0.1-0.4c-0.2-0.3-0.4-0.5-0.6-0.5h-0.4h-3.2
		c-1.1,0-2-0.4-2.8-1.1c-0.8-0.7-1.2-1.5-1.2-2.4v-3.1c0-2.4,1.4-3.7,4-3.7h8.4v4.2H80c-0.8,0-1.3,0.3-1.3,0.8v0.4
		c0,0.5,0.4,0.8,1.3,0.8h3.6c1,0,1.8,0.4,2.5,1.1c0.7,0.7,1,1.6,1.1,2.6v3.1c0,0.9-0.4,1.7-1.2,2.6c-0.4,0.4-0.8,0.7-1.1,0.9
		c-0.4,0.1-0.9,0.2-1.6,0.2h-8.5V21.4z"/>
	<path class="st0" d="M99.4,14.1c0-0.6-0.3-0.9-1.1-0.9h-8.2V9h9.3c2.7,0,4.1,1.3,4.1,3.9v8.8c0,1.1-0.4,2-1,2.8
		c-0.7,0.8-1.6,1.1-2.7,1.1h-5.6c-2.7,0-4.1-1.3-4.1-3.7v-3.4c0-2.6,1.3-3.9,4-3.9h5.4V14.1z M94.1,20.5c0,0.2,0.1,0.4,0.3,0.6
		c0.2,0.2,0.4,0.3,0.7,0.3h3.1c0.7,0,1.1-0.3,1.1-0.8v-1.2c0-0.6-0.4-1-1.1-1h-3.1c-0.4,0-0.7,0.1-0.8,0.2c-0.1,0.2-0.2,0.5-0.2,0.9
		V20.5z"/>
	<path class="st0" d="M106.8,6.6c0-1.1,0.4-2,1.3-2.7c0.8-0.7,1.8-1,3.1-1.1h2.6v4.1h-1.6c-0.9,0-1.3,0.4-1.3,1.2V9h2.9v4.2h-2.9
		v12.4h-4.1V6.6z"/>
	<path class="st0" d="M120.3,19.9v0.3c0,0.3,0.1,0.6,0.3,0.8c0.1,0.2,0.3,0.4,0.5,0.4h0.5h7.9v4.2h-8.9c-0.8,0-1.4-0.1-1.9-0.2
		c-0.5-0.2-0.9-0.4-1.3-0.8c-0.4-0.4-0.8-0.9-0.9-1.4c-0.2-0.5-0.3-1.1-0.3-1.9l0-8.4c0-2.5,1.4-3.8,4-3.9h5.5c2.5,0,3.8,1.4,3.9,4
		v3.3L120.3,19.9z M125.4,14L125.4,14c0-0.3-0.1-0.5-0.3-0.6c-0.2-0.1-0.4-0.2-0.7-0.2h-2.8c-0.4,0-0.7,0.1-0.9,0.3
		c-0.3,0.2-0.4,0.4-0.4,0.8v1.7L125.4,14z"/>
	<path class="st0" d="M138.2,25.6c-0.6,0-1.2-0.1-1.7-0.2c-0.5-0.1-1.1-0.3-1.6-0.8c-0.6-0.5-0.9-1-1.2-1.6c-0.2-0.6-0.3-1.3-0.3-2
		v-7.8c0-0.6,0-1.2,0.2-1.7c0.1-0.5,0.4-1,0.9-1.4c0.5-0.5,1-0.8,1.5-1c0.5-0.1,1.1-0.2,1.7-0.2h6.3v1h-6.1c-1.1,0-1.9,0.2-2.5,0.7
		c-0.6,0.5-1,1.3-1,2.5v7.8c0,0.6,0.1,1.1,0.3,1.6c0.2,0.5,0.5,1,0.9,1.3c0.4,0.3,0.9,0.5,1.3,0.6c0.5,0.1,0.9,0.1,1.4,0.1h5.8v1
		H138.2z"/>
	<path class="st0" d="M161,21.1c0,0.6,0,1.2-0.1,1.7c-0.1,0.5-0.4,1-0.8,1.5c-0.9,0.9-1.9,1.3-3.2,1.3H152c-1.3,0-2.3-0.4-3.1-1.1
		c-0.8-0.7-1.2-1.8-1.2-3.1v-2.5c0-2.8,1.5-4.3,4.3-4.4h8.1v-1.1c0-0.9-0.3-1.7-0.8-2.4c-0.3-0.4-0.7-0.7-1.2-0.9
		c-0.5-0.1-1-0.2-1.5-0.2h-8.9v-1h8.4c0.8,0,1.5,0.1,2.1,0.2c0.3,0.1,0.6,0.2,0.9,0.4c0.3,0.2,0.6,0.4,0.8,0.8
		c0.8,1,1.1,2.1,1.1,3.4V21.1z M160,15.4h-8.2c-1,0-1.7,0.3-2.3,0.9c-0.6,0.6-0.9,1.4-0.9,2.4v2.5c0,0.5,0.1,0.9,0.2,1.3
		c0.1,0.4,0.4,0.8,0.8,1.1c0.7,0.6,1.5,0.9,2.3,0.9h5c2.1,0,3.1-1.1,3.1-3.3V15.4z"/>
	<path class="st0" d="M170.2,9.9c-2.3,0-3.4,1.3-3.4,3.7v12h-1v-12c0-3.1,1.4-4.7,4.5-4.7h1.1v1H170.2z"/>
	<path class="st0" d="M187.7,20.9c-0.1,3.2-1.8,4.7-5,4.6H179c-0.8,0-1.4-0.1-2.1-0.2c-0.6-0.2-1.2-0.5-1.8-1.1
		c-0.4-0.5-0.7-1.1-0.8-1.6c-0.1-0.5-0.2-1.2-0.2-1.8v-7.1c0-3.2,1.7-4.8,4.9-4.8h7.7V3.5h1V20.9z M186.7,9.9H179
		c-0.6,0-1.1,0.1-1.5,0.2c-0.5,0.1-0.9,0.4-1.3,0.9c-0.4,0.4-0.7,0.8-0.8,1.3c-0.1,0.4-0.2,0.9-0.2,1.5v7.6c0,1.3,0.4,2.1,1.1,2.6
		c0.4,0.2,0.8,0.4,1.2,0.5c0.5,0.1,1,0.2,1.5,0.2h3.4c1.3,0,2.3-0.3,3.1-0.9c0.8-0.5,1.2-1.5,1.2-2.8V9.9z"/>
	<path class="st0" d="M2,8.4C2.3,8.2,2.6,8.1,3,8C3.6,5.2,6,3.1,9,3.1c3,0,5.5,2.1,6.1,4.9c0.9,0.2,1.7,0.5,2.3,1.1
		c0-0.5,0-1.1-0.1-1.6C16.9,3.3,13.4,0,9,0C4.5,0,0.9,3.6,0.7,8c0,0.4,0,0.8,0,1.2C1.1,8.9,1.5,8.6,2,8.4"/>
	<path class="st0" d="M13.9,9h-10c-0.5,0-1,0.1-1.5,0.3c-0.5,0.2-0.9,0.5-1.2,0.8c-0.6,0.7-0.9,1.8-1,3.3v7.8c0,1.4,0.3,2.5,1,3.3
		c0.3,0.3,0.7,0.6,1.2,0.8c0.5,0.2,1,0.3,1.5,0.3h10c2.6,0,3.9-1.4,3.9-4.2v-8.1C17.8,10.4,16.5,9,13.9,9"/>
	<path class="st0" d="M74.9,48v-8.4c0-0.1,0-0.3,0-0.4c0.1-1,0.5-1.4,1.4-1.6c0.1,0,0.2,0,0.3,0h2.7c0.1,0,0.3,0,0.4,0
		c1,0.2,1.5,0.8,1.5,1.9v3.9c0,0.3-0.1,0.6-0.4,1c-0.1,0.1-0.1,0.2-0.2,0.2c-0.4,0.3-0.8,0.5-1.2,0.5h-2.6V48
		C76.8,47.9,74.9,48,74.9,48 M76.8,42.8c0,0.3,0.2,0.4,0.5,0.4c0,0,0.1,0,0.1,0h1.4h0.1c0.1,0,0.2-0.1,0.3-0.2
		c0.1-0.1,0.1-0.2,0.1-0.3V40v-0.1c0-0.2-0.1-0.3-0.4-0.4c0,0,0,0-0.1,0h-1.5c-0.2,0-0.4,0.1-0.5,0.3c-0.1,0.1-0.1,0.2-0.1,0.2v2.6
		C76.8,42.7,76.8,42.7,76.8,42.8"/>
	<path class="st0" d="M82.5,43.5v-1.5c0-1.1,0.7-1.8,1.8-1.8h2.6l0-0.4c0-0.2-0.1-0.3-0.4-0.3h-0.1h-3.9v-1.8h4.4c0.1,0,0.2,0,0.3,0
		c1,0.1,1.4,0.5,1.6,1.4c0,0.1,0,0.2,0,0.3v4c0,0.1,0,0.2,0,0.4c-0.2,0.9-0.8,1.4-1.7,1.4h-2.6c-1.1,0-1.8-0.5-1.9-1.4
		C82.5,43.7,82.5,43.5,82.5,43.5 M84.5,43.1c0.1,0.1,0.2,0.1,0.3,0.2c0,0,0.1,0,0.1,0h1.5c0.2,0,0.3,0,0.4-0.1
		c0.1-0.1,0.1-0.2,0.1-0.3v-0.5c0-0.2,0-0.3-0.2-0.4c-0.1,0-0.1-0.1-0.3-0.1h-1.6l-0.1,0c-0.2,0-0.3,0.1-0.3,0.4v0.1v0.5
		C84.4,42.9,84.4,43,84.5,43.1"/>
	<path class="st0" d="M90.1,48v-1.9H94c0,0,0.1,0,0.1,0c0.3-0.1,0.4-0.2,0.4-0.4v-0.2v-0.3H92c-0.8,0-1.2-0.2-1.6-0.9
		c-0.2-0.3-0.3-0.6-0.3-1.1v-5.6h1.9v5c0,0.4,0.2,0.6,0.5,0.6h1.4c0,0,0.1,0,0.1,0c0.3,0,0.4-0.2,0.5-0.5v-0.2v-5h1.9v8.3
		c0,0.1,0,0.3,0,0.4c-0.1,0.9-0.6,1.5-1.4,1.6c-0.1,0-0.3,0-0.4,0H90.1z"/>
	<path class="st0" d="M99.6,43.2v-3.8c0-1.1,0.4-1.6,1.3-1.8c0.1,0,0.2,0,0.3,0h3.5v1.9h-2.6c-0.4,0-0.5,0.1-0.6,0.3v0.2v2.6
		c0,0.1,0,0.2,0.1,0.3c0.1,0.2,0.2,0.2,0.4,0.2h2.6v1.9h-3.1C100.3,45.2,99.6,44.5,99.6,43.2"/>
	<path class="st0" d="M105.8,43.5v-1.5c0-1.1,0.7-1.8,1.8-1.8h2.6l0-0.4c0-0.2-0.1-0.3-0.4-0.3h-0.1h-3.9v-1.8h4.4
		c0.1,0,0.2,0,0.3,0c1,0.1,1.4,0.5,1.6,1.4c0,0.1,0,0.2,0,0.3v4c0,0.1,0,0.2,0,0.4c-0.2,0.9-0.8,1.4-1.7,1.4h-2.6
		c-1.1,0-1.8-0.5-1.9-1.4C105.9,43.7,105.8,43.5,105.8,43.5 M107.9,43.1c0.1,0.1,0.2,0.1,0.3,0.2c0,0,0.1,0,0.1,0h1.5
		c0.2,0,0.3,0,0.4-0.1c0.1-0.1,0.1-0.2,0.1-0.3v-0.5c0-0.2,0-0.3-0.2-0.4c-0.1,0-0.1-0.1-0.3-0.1h-1.6l-0.1,0
		c-0.2,0-0.3,0.1-0.3,0.4v0.1v0.5C107.8,42.9,107.8,43,107.9,43.1"/>
	<path class="st0" d="M113.3,45.2v-1.9h3.3h0.1c0.2,0,0.3-0.1,0.4-0.3c0,0,0-0.1,0-0.1v-0.2c0,0,0-0.1,0-0.2
		c-0.1-0.1-0.1-0.2-0.3-0.2h-0.2h-1.5c-0.3,0-0.6-0.1-0.8-0.2c-0.7-0.4-1-0.8-1-1.4v-1.4c0-0.1,0-0.3,0.1-0.4
		c0.2-0.8,0.8-1.3,1.8-1.3h3.9l0,1.9h-3.3h-0.2h0c-0.1,0-0.1,0-0.2,0.1c0,0,0,0,0,0c-0.1,0.1-0.2,0.2-0.2,0.3V40c0,0,0,0.1,0.1,0.2
		c0.1,0.1,0.1,0.1,0.4,0.1h0.1h1.6c0.5,0,0.9,0.2,1.2,0.6c0.3,0.4,0.5,0.8,0.5,1.1l0,1.4c0,0.3-0.1,0.6-0.3,0.9
		c-0.4,0.6-0.8,0.8-1.5,0.8H113.3z"/>
	<path class="st0" d="M120.3,45.2V34.8h1.9v2.8h2.6c0.1,0,0.2,0,0.3,0c0.8,0.2,1.3,0.6,1.4,1.4c0,0.1,0,0.2,0,0.3v5.8h-1.9v-5.1
		v-0.2l0-0.1c0-0.2-0.1-0.3-0.4-0.3h-0.1h-1.4c-0.2,0-0.3,0-0.4,0.1c-0.1,0.1-0.1,0.1-0.1,0.2v0.3v5H120.3z"/>
	<path class="st0" d="M127.6,44c0-0.3,0.1-0.6,0.3-0.9c0.5-0.5,1.2-0.5,1.7,0c0.5,0.5,0.5,1.2,0,1.7c-0.4,0.5-1.2,0.5-1.7,0
		C127.7,44.6,127.6,44.3,127.6,44"/>
	<path class="st0" d="M135,48v-8.4c0-0.1,0-0.3,0-0.4c0.1-1,0.5-1.4,1.4-1.6c0.1,0,0.2,0,0.3,0h2.7c0.1,0,0.3,0,0.4,0
		c1,0.2,1.5,0.8,1.5,1.9v3.9c0,0.3-0.1,0.6-0.4,1c-0.1,0.1-0.1,0.2-0.2,0.2c-0.4,0.3-0.8,0.5-1.2,0.5H137V48
		C136.9,47.9,135,48,135,48 M137,42.8c0,0.3,0.2,0.4,0.5,0.4c0,0,0.1,0,0.1,0h1.4h0.1c0.1,0,0.2-0.1,0.3-0.2
		c0.1-0.1,0.1-0.2,0.1-0.3V40v-0.1c0-0.2-0.1-0.3-0.4-0.4c0,0,0,0-0.1,0h-1.5c-0.2,0-0.4,0.1-0.5,0.3c-0.1,0.1-0.1,0.2-0.1,0.2v2.6
		C137,42.7,137,42.7,137,42.8"/>
	<path class="st0" d="M142.7,43.5v-1.5c0-1.1,0.7-1.8,1.9-1.8h2.6l0-0.4c0-0.2-0.1-0.3-0.4-0.3h-0.1h-3.9v-1.8h4.4
		c0.1,0,0.2,0,0.3,0c1,0.1,1.4,0.5,1.6,1.4c0,0.1,0,0.2,0,0.3v4c0,0.1,0,0.2,0,0.4c-0.2,0.9-0.8,1.4-1.7,1.4h-2.6
		c-1.1,0-1.8-0.5-1.9-1.4C142.7,43.7,142.7,43.5,142.7,43.5 M144.7,43.1c0.1,0.1,0.2,0.1,0.3,0.2c0,0,0.1,0,0.1,0h1.5
		c0.2,0,0.3,0,0.4-0.1c0.1-0.1,0.1-0.2,0.1-0.3v-0.5c0-0.2,0-0.3-0.2-0.4c-0.1,0-0.1-0.1-0.3-0.1H145l-0.1,0c-0.2,0-0.3,0.1-0.3,0.4
		v0.1v0.5C144.6,42.9,144.6,43,144.7,43.1"/>
	<path class="st0" d="M150.3,48v-1.9h3.8c0,0,0.1,0,0.1,0c0.3-0.1,0.4-0.2,0.4-0.4v-0.2v-0.3h-2.5c-0.8,0-1.2-0.2-1.6-0.9
		c-0.2-0.3-0.3-0.6-0.3-1.1v-5.6h1.9v5c0,0.4,0.2,0.6,0.5,0.6h1.4c0,0,0.1,0,0.1,0c0.3,0,0.4-0.2,0.5-0.5v-0.2v-5h1.9v8.3
		c0,0.1,0,0.3,0,0.4c-0.1,0.9-0.6,1.5-1.4,1.6c-0.1,0-0.3,0-0.4,0H150.3z"/>
	<path class="st0" d="M159.7,45.2v-1.9h3.3h0.1c0.2,0,0.3-0.1,0.4-0.3c0,0,0-0.1,0-0.1v-0.2c0,0,0-0.1,0-0.2
		c-0.1-0.1-0.1-0.2-0.3-0.2H163h-1.5c-0.3,0-0.6-0.1-0.8-0.2c-0.7-0.4-1-0.8-1-1.4v-1.4c0-0.1,0-0.3,0.1-0.4
		c0.2-0.8,0.8-1.3,1.8-1.3h3.9l0,1.9h-3.3h-0.2h0c-0.1,0-0.1,0-0.2,0.1c0,0,0,0,0,0c-0.1,0.1-0.2,0.2-0.2,0.3V40c0,0,0,0.1,0.1,0.2
		c0.1,0.1,0.1,0.1,0.4,0.1h0.1h1.6c0.5,0,0.9,0.2,1.2,0.6c0.3,0.4,0.5,0.8,0.5,1.1l0,1.4c0,0.3-0.1,0.6-0.3,0.9
		c-0.4,0.6-0.8,0.8-1.5,0.8H159.7z"/>
	<path class="st0" d="M166.7,43.5v-1.5c0-1.1,0.7-1.8,1.8-1.8h2.6l0-0.4c0-0.2-0.1-0.3-0.4-0.3h-0.1h-3.9v-1.8h4.4
		c0.1,0,0.2,0,0.3,0c1,0.1,1.4,0.5,1.6,1.4c0,0.1,0,0.2,0,0.3v4c0,0.1,0,0.2,0,0.4c-0.2,0.9-0.8,1.4-1.7,1.4h-2.6
		c-1.1,0-1.8-0.5-1.9-1.4C166.8,43.7,166.7,43.5,166.7,43.5 M168.8,43.1c0.1,0.1,0.2,0.1,0.3,0.2c0,0,0.1,0,0.1,0h1.5
		c0.2,0,0.3,0,0.4-0.1c0.1-0.1,0.1-0.2,0.1-0.3v-0.5c0-0.2,0-0.3-0.2-0.4c-0.1,0-0.1-0.1-0.3-0.1H169l-0.1,0c-0.2,0-0.3,0.1-0.3,0.4
		v0.1v0.5C168.7,42.9,168.7,43,168.8,43.1"/>
	<path class="st0" d="M174.4,45.2v-8.7c0-1,0.8-1.7,2-1.7h1.2v1.8h-0.7c0,0-0.1,0-0.1,0c-0.4,0.1-0.5,0.2-0.5,0.6v0.4h1.3v1.9h-1.3
		v5.6H174.4z"/>
	<path class="st0" d="M178.2,39.4c0-0.1,0-0.3,0-0.4c0.2-0.9,0.8-1.4,1.8-1.4h2.6c0.1,0,0.2,0,0.3,0c0.9,0.1,1.3,0.6,1.5,1.5
		c0,0.1,0,0.2,0,0.3v1.5l-4.3,1.6v0.1c0,0.3,0.1,0.5,0.4,0.5h4v1.9h-4.2c-0.6,0-0.9-0.1-1.1-0.2c-0.7-0.4-0.9-0.9-0.9-1.8V39.4z
		 M182.5,40L182.5,40L182.5,40c0-0.2-0.1-0.3-0.4-0.4c0,0-0.1,0-0.1,0h-1.3c0,0-0.1,0-0.2,0c-0.2,0.1-0.3,0.1-0.4,0.3
		c0,0.1,0,0.1,0,0.2v0.8L182.5,40z"/>
	<path class="st0" d="M185.4,44c0-0.3,0.1-0.6,0.3-0.9c0.5-0.5,1.2-0.5,1.7,0c0.5,0.5,0.5,1.2,0,1.7c-0.5,0.5-1.2,0.5-1.7,0
		C185.5,44.6,185.4,44.3,185.4,44"/>
</g>
</svg>
