<?xml version="1.0" encoding="utf-8"?>
<!-- Generator: Adobe Illustrator 21.1.0, SVG Export Plug-In . SVG Version: 6.00 Build 0)  -->
<svg version="1.1" id="Layer_1" xmlns="http://www.w3.org/2000/svg" xmlns:xlink="http://www.w3.org/1999/xlink" x="0px" y="0px"
	 viewBox="0 0 130 43" style="enable-background:new 0 0 130 43;" xml:space="preserve">
<style type="text/css">
	.st0{fill:#FFFFFF;}
</style>
<g>
	<polygon class="st0" points="52.4,1.2 45.8,41.9 56.4,41.9 63,1.2 	"/>
	<path class="st0" d="M36.9,1.2l-10.1,28l-1.2-6l0,0L22,4.8c0,0-0.4-3.7-5-3.7H0.3L0.1,1.9c0,0,0,0,0.1,0c0,0,0.1,0,0.1,0
		c0,0,0.1,0,0.1,0c0,0,0.1,0,0.1,0C0.6,2,0.7,2,0.7,2c0.1,0,0.1,0,0.2,0.1c0.1,0,0.2,0,0.2,0.1c0.2,0,0.4,0.1,0.6,0.2
		c0.1,0,0.2,0.1,0.3,0.1c0.1,0,0.3,0.1,0.4,0.1c0.1,0,0.2,0.1,0.3,0.1C3,2.7,3.1,2.7,3.3,2.8c0.1,0,0.2,0.1,0.3,0.1
		C3.8,3,4,3,4.2,3.1c0.1,0,0.2,0.1,0.3,0.1c0.4,0.1,0.8,0.3,1.2,0.5C5.8,3.8,5.9,3.8,6,3.9C6.2,4,6.4,4.1,6.7,4.1
		C6.8,4.2,7,4.3,7.1,4.4c0.2,0.1,0.4,0.2,0.7,0.3c0.2,0.1,0.3,0.2,0.5,0.2C8.5,5,8.7,5.1,8.9,5.3c0.2,0.1,0.4,0.2,0.6,0.3
		c0.4,0.2,0.7,0.4,1.1,0.6c0.2,0.1,0.4,0.2,0.5,0.3l9.2,35.3h11L48.3,1.2H36.9z"/>
	<path class="st0" d="M121.4,1.2h-8.5c-3.9,0-4.9,3-4.9,3L92.2,41.9h11l2.2-6h13.5l1.2,6h9.7L121.4,1.2z M108.5,27.5l5.6-15.2
		l3.1,15.2H108.5z"/>
	<path class="st0" d="M78.2,12.5c0-4.6,10.3-4,14.8-1.5l1.5-8.7c0,0-4.7-1.8-9.5-1.8c-5.3,0-17.7,2.3-17.7,13.5
		c0,10.5,14.6,10.6,14.6,16.2s-13.1,4.5-17.5,1.1l-1.6,9.1c0,0,4.7,2.3,12,2.3c7.2,0,18.1-3.7,18.1-13.9
		C93,18.1,78.2,17.1,78.2,12.5z"/>
</g>
</svg>
